<svg width="800" height="480"
	xmlns="http://www.w3.org/2000/svg"
	xmlns:xlink="http://www.w3.org/1999/xlink">


	<style>
		text {
	      <!-- font-family: "Arial", sans-serif; -->
	      <!-- font-family: "DejaVu Sans" -->
	      <!-- font-family: "Roboto"; -->
	      font-family: "Roboto Regular"
	      <!-- font-family: "Roboto Medium" -->
	      <!-- font-family: "Roboto Black" -->
	      <!-- font-family: "Roboto Bold" -->
	      <!-- font-family: "DejaVu Sans Mono" -->
	      <!-- font-family: "Inconsolata" -->     
		}
	</style>



	<!-- Wettericons -->
	<defs>
		<path id="cloudy" d="M22.4,29H16c-2.8,0-5-2.2-5-5c0-2.5,1.8-4.5,4.2-4.9c1-3,3.9-5.1,7.2-5.1c4.2,0,7.6,3.4,7.6,7.5S26.6,29,22.4,29z M13.8,17.4c1.6-3.3,4.9-5.4,8.7-5.4c2.1,0,4,0.7,5.5,1.8c0-0.3,0.1-0.5,0.1-0.8c0-5.5-4.5-10-10-10c-4.4,0-8.2,2.8-9.5,7 C4.9,10,2,12.9,2,16.5C2,20.1,4.9,23,8.5,23h0.6C9.5,20.4,11.3,18.3,13.8,17.4z"/>
		<path id="partly-cloudy-night" d="M21.1,30h-8.3C9.6,30,7,27.4,7,24.1c0-3.2,2.5-5.8,5.7-5.9c1.2-3.7,4.5-6.2,8.4-6.2c4.9,0,8.9,4,8.9,9S26,30,21.1,30z M6,20.2c1.1-1.9,3-3.4,5.2-3.9c1.7-3.7,5.3-6.2,9.4-6.4C19.4,5.2,14.4,2,9.2,3.3C8.7,3.4,8.4,3.8,8.4,4.2s0.3,0.8,0.7,1c1.6,0.5,2.6,2,2.6,3.6c0,2.1-1.7,3.9-3.9,3.9c-1.6,0-3.1-1.1-3.6-2.6c-0.1-0.4-0.5-0.7-1-0.7c-0.4,0-0.8,0.3-0.9,0.8 C2.1,10.9,2,11.7,2,12.5C2,15.6,3.5,18.5,6,20.2z"/>
		<path id="partly-cloudy-day" d="M4,14H2c-0.6,0-1-0.4-1-1s0.4-1,1-1h2c0.6,0,1,0.4,1,1S4.6,14,4,14z M19.4,7.6c-0.3,0-0.5-0.1-0.7-0.3c-0.4-0.4-0.4-1,0-1.4l1.4-1.4c0.4-0.4,1-0.4,1.4,0s0.4,1,0,1.4l-1.4,1.4
		C19.9,7.5,19.6,7.6,19.4,7.6z M13,5c-0.6,0-1-0.4-1-1V2c0-0.6,0.4-1,1-1s1,0.4,1,1v2C14,4.6,13.6,5,13,5z M6.6,7.6c-0.3,0-0.5-0.1-0.7-0.3L4.5,5.9c-0.4-0.4-0.4-1,0-1.4s1-0.4,1.4,0l1.4,1.4c0.4,0.4,0.4,1,0,1.4
		C7.1,7.5,6.9,7.6,6.6,7.6z M21.1,30h-8.3C9.6,30,7,27.4,7,24.1c0-3.2,2.5-5.8,5.7-5.9c1.2-3.7,4.5-6.2,8.4-6.2c4.9,0,8.9,4,8.9,9S26,30,21.1,30z M11.3,16.4c1.5-3.3,4.6-5.7,8.1-6.2C18.3,7.7,15.8,6,13,6c-3.9,0-7,3.1-7,7c0,1.9,0.8,3.6,2,4.9C9,17.2,10.1,16.6,11.3,16.4z"/>
		<path id="rain" d="M15,30c-0.6,0-1-0.4-1-1v-6c0-0.6,0.4-1,1-1s1,0.4,1,1v6C16,29.6,15.6,30,15,30z M11,28c-0.6,0-1-0.4-1-1v-6c0-0.6,0.4-1,1-1s1,0.4,1,1v6C12,27.6,11.6,28,11,28z M19,28c-0.6,0-1-0.4-1-1v-6c0-0.6,0.4-1,1-1s1,0.4,1,1v6C20,27.6,19.6,28,19,28z M19,4c-4.4,0-8.2,2.8-9.5,7C5.9,11,3,13.9,3,17.5c0,3.1,2.1,5.6,5,6.3V21c0-1.7,1.3-3,3-3c1.4,0,2.5,0.9,2.9,2.2c0.3-0.1,0.7-0.2,1.1-0.2c0.4,0,0.8,0.1,1.1,0.2c0.3-1.3,1.5-2.2,2.9-2.2c1.7,0,3,1.3,3,3v2.5c4.1-1.3,7-5.1,7-9.5 C29,8.5,24.5,4,19,4z"/>
		<path id="snow" d="M19,2c-4.4,0-8.2,2.8-9.5,7C5.9,9,3,11.9,3,15.5c0,2.4,1.3,4.6,3.4,5.7c0.9,0.5,2,0.8,3.1,0.8H19c5.5,0,10-4.5,10-10
		S24.5,2,19,2z M12,24c0-0.6-0.4-1-1-1s-1,0.4-1,1c-0.6,0-1,0.4-1,1s0.4,1,1,1c0,0.6,0.4,1,1,1s1-0.4,1-1c0.6,0,1-0.4,1-1S12.6,24,12,24z M17,27c0-0.6-0.4-1-1-1s-1,0.4-1,1c-0.6,0-1,0.4-1,1s0.4,1,1,1c0,0.6,0.4,1,1,1s1-0.4,1-1c0.6,0,1-0.4,1-1S17.6,27,17,27z M22,24c0-0.6-0.4-1-1-1s-1,0.4-1,1c-0.6,0-1,0.4-1,1s0.4,1,1,1c0,0.6,0.4,1,1,1s1-0.4,1-1c0.6,0,1-0.4,1-1S22.6,24,22,24z"/>
		<path id="clear-day" d="M16,8c-4.4,0-8,3.6-8,8s3.6,8,8,8s8-3.6,8-8S20.4,8,16,8z M16,7c0.6,0,1-0.4,1-1V3c0-0.6-0.4-1-1-1s-1,0.4-1,1v3C15,6.6,15.4,7,16,7z M8.2,9.6c0.2,0.2,0.5,0.3,0.7,0.3s0.5-0.1,0.7-0.3c0.4-0.4,0.4-1,0-1.4L7.5,6.1c-0.4-0.4-1-0.4-1.4,0s-0.4,1,0,1.4L8.2,9.6 M7,16c0-0.6-0.4-1-1-1H3c-0.6,0-1,0.4-1,1s0.4,1,1,1h3C6.6,17,7,16.6,7,16z M8.2,22.4l-2.1,2.1c-0.4,0.4-0.4,1,0,1.4c0.2,0.2,0.5,0.3,0.7,0.3s0.5-0.1,0.7-0.3l2.1-2.1c0.4-0.4,0.4-1,0-1.4 S8.6,22,8.2,22.4z M16,25c-0.6,0-1,0.4-1,1v3c0,0.6,0.4,1,1,1s1-0.4,1-1v-3C17,25.4,16.6,25,16,25z M23.8,22.4c-0.4-0.4-1-0.4-1.4,0s-0.4,1,0,1.4l2.1,2.1c0.2,0.2,0.5,0.3,0.7,0.3s0.5-0.1,0.7-0.3c0.4-0.4,0.4-1,0-1.4 L23.8,22.4z M29,15h-3c-0.6,0-1,0.4-1,1s0.4,1,1,1h3c0.6,0,1-0.4,1-1S29.6,15,29,15z M23.1,9.9c0.3,0,0.5-0.1,0.7-0.3l2.1-2.1c0.4-0.4,0.4-1,0-1.4s-1-0.4-1.4,0l-2.1,2.1c-0.4,0.4-0.4,1,0,1.4 C22.6,9.8,22.8,9.9,23.1,9.9z"/>
		<path id="clear-night" d="M17,4c-0.2,0-0.5,0-0.7,0l-0.1,0c-0.4,0-0.8,0.4-0.9,0.8s0.1,0.9,0.5,1.1C18.4,7.3,20,10,20,13c0,4.4-3.6,8-8,8c-2.3,0-4.6-1-6.1-2.8c-0.3-0.3-0.8-0.4-1.2-0.3c-0.4,0.2-0.6,0.6-0.6,1.1c1,6.4,6.4,11,12.8,11c7.2,0,13-5.8,13-13S24.2,4,17,4z M6,13.2C6.1,13.7,6.5,14,7,14s0.9-0.3,1-0.8c0.5-2.2,1-2.7,3.3-3.3C11.7,9.9,12,9.5,12,9s-0.3-0.9-0.8-1C9,7.5,8.5,7,8,4.8 C7.9,4.3,7.5,4,7,4S6.1,4.3,6,4.8C5.5,7,5,7.5,2.8,8C2.3,8.1,2,8.5,2,9s0.3,0.9,0.8,1C5,10.5,5.5,11,6,13.2z M11,14c-0.6,0-1,0.4-1,1s0.4,1,1,1c0,0.6,0.4,1,1,1s1-0.4,1-1c0.6,0,1-0.4,1-1s-0.4-1-1-1c0-0.6-0.4-1-1-1S11,13.4,11,14z"/>
		<path id="wind" d="M25,20H13c-0.6,0-1,0.4-1,1s0.4,1,1,1h12c1.7,0,3,1.3,3,3s-1.3,3-3,3c-1.2,0-2.3-0.7-2.8-1.8c-0.2-0.5-0.8-0.7-1.3-0.5c-0.5,0.2-0.8,0.8-0.5,1.3C21.2,28.8,23,30,25,30c2.8,0,5-2.2,5-5S27.8,20,25,20z M30,10.5C30,6.4,26.6,3,22.5,3c-2.7,0-5.1,1.4-6.4,3.6C15.5,6.2,14.8,6,14,6c-1.6,0-3.1,1-3.7,2.5c-0.2,0.5,0,1.1,0.5,1.3s1.1,0,1.3-0.5C12.5,8.5,13.2,8,14,8c1.1,0,2,0.9,2,2s-0.9,2-2,2H7c-0.6,0-1,0.4-1,1s0.4,1,1,1h7c2.2,0,4-1.8,4-4c0-0.7-0.2-1.3-0.5-1.8c0.9-1.9,2.8-3.2,5-3.2c3,0,5.5,2.5,5.5,5.5S25.5,16,22.5,16H3c-0.6,0-1,0.4-1,1s0.4,1,1,1h19.5 C26.6,18,30,14.6,30,10.5z M9,20H6c-0.6,0-1,0.4-1,1s0.4,1,1,1h3c0.6,0,1-0.4,1-1S9.6,20,9,20z"/>
		<path id="fog" d="M19,5c-4.4,0-8.2,2.8-9.5,7c-3.3,0-6.1,2.6-6.4,5.9c0,0.3,0.1,0.6,0.3,0.8S3.7,19,4,19h23.5c0.4,0,0.8-0.3,0.9-0.7c0.4-1.1,0.6-2.2,0.6-3.3C29,9.5,24.5,5,19,5 M19,22c0-0.6-0.4-1-1-1H4c-0.6,0-1,0.4-1,1s0.4,1,1,1h14C18.6,23,19,22.6,19,22z M27,21h-5c-0.6,0-1,0.4-1,1s0.4,1,1,1h5c0.6,0,1-0.4,1-1S27.6,21,27,21z M22,25H8c-0.6,0-1,0.4-1,1s0.4,1,1,1h14c0.6,0,1-0.4,1-1S22.6,25,22,25z"/>
		<path id="thunder" d="M13,30c-0.2,0-0.4-0.1-0.6-0.2c-0.5-0.3-0.6-0.9-0.3-1.4l3-4.4H13c-0.4,0-0.7-0.2-0.9-0.5s-0.2-0.7,0-1l4-6c0.3-0.5,0.9-0.6,1.4-0.3c0.5,0.3,0.6,0.9,0.3,1.4l-3,4.4H17c0.4,0,0.7,0.2,0.9,0.5s0.2,0.7,0,1l-4,6C13.6,29.8,13.3,30,13,30z M19,4c-4.4,0-8.2,2.8-9.5,7C5.9,11,3,13.9,3,17.5C3,21.1,5.9,24,9.5,24l0.7,0c-0.3-0.9-0.2-1.9,0.3-2.7l4-6c0.4-0.7,1.1-1.1,1.9-1.3c0.8-0.2,1.6,0,2.3,0.4c0.7,0.4,1.1,1.1,1.3,1.9c0.2,0.8,0,1.6-0.4,2.3l-1.1,1.7c0.5,0.3,1,0.7,1.3,1.2c0.4,0.7,0.4,1.5,0.2,2.2l1,0c0.1,0,0.1,0,0.2,0c4.6-1,8-5.1,8-9.8C29,8.5,24.5,4,19,4"/>
		<path id="sunset" d="M71.998 58h-4c-1.104 0-1.999-.896-1.999-2s.895-2 1.999-2h4c1.104 0 1.999.896 1.999 2s-.894 2-1.999 2zm-7.856-13.312c-.781.781-2.048.781-2.828 0-.781-.781-.781-2.047 0-2.828l2.828-2.828c.78-.78 2.047-.78 2.827 0 .781.781.781 2.047 0 2.828l-2.827 2.828zm-2.84 15.311h-4.381c.682-1.177 1.078-2.54 1.078-3.999 0-4.418-3.581-7.999-7.998-7.999-4.418 0-8 3.581-8 7.999 0 1.459.397 2.822 1.08 3.999h-4.382c-.443-1.252-.697-2.595-.697-3.999 0-6.627 5.372-11.998 11.999-11.998 6.626 0 11.998 5.371 11.998 11.998 0 1.404-.254 2.747-.697 3.999zM50.001 40.002c-1.105 0-2-.896-2-2v-3.999c0-1.104.895-2 2-2 1.104 0 2 .896 2 2v3.999c0 1.104-.897 2-2 2zM35.86 44.688l-2.828-2.828c-.781-.781-.781-2.047 0-2.828.781-.78 2.047-.78 2.828 0l2.828 2.828c.781.781.781 2.047 0 2.828s-2.046.781-2.828 0zM34.003 56c0 1.104-.896 2-2 2h-4c-1.104 0-2-.896-2-2s.896-2 2-2h4c1.104 0 2 .896 2 2zm15.998-4c.552 0 1 .448 1 1v3.828l2.535-2.535c.391-.391 1.023-.391 1.414 0s.391 1.023 0 1.414l-4.242 4.242c-.391.391-1.023.391-1.414 0l-4.242-4.242c-.391-.391-.391-1.023 0-1.414s1.023-.391 1.414 0l2.535 2.535V53c0-.552.447-1 1-1zm-9.999 11.999h19.997c1.104 0 2 .896 2 2s-.896 1.999-2 1.999H40.002c-1.104 0-2-.895-2-1.999s.895-2 2-2z"/>
		<path id="sunrise" d="m38.688 41.859-2.828-2.828c-.781-.78-2.047-.78-2.828 0-.781.781-.781 2.047 0 2.828l2.828 2.828c.781.781 2.047.781 2.828 0 .781-.781.781-2.046 0-2.828zM71.997 54h-3.999c-1.104 0-1.999.896-1.999 2s.895 2 1.999 2h3.999c1.105 0 2-.896 2-2s-.894-2-2-2zm-39.994 0h-4c-1.104 0-2 .896-2 2s.896 2 2 2h4c1.104 0 2-.896 2-2s-.897-2-2-2zm27.996 9.999H40.001c-1.104 0-1.999.896-1.999 2s.896 1.999 1.999 1.999h19.998c1.104 0 2-.895 2-1.999s-.895-2-2-2zm6.97-24.968c-.78-.78-2.048-.78-2.828 0l-2.828 2.828c-.78.781-.78 2.047 0 2.828.781.781 2.048.781 2.828 0l2.828-2.828c.78-.781.78-2.047 0-2.828zm-16.968.971c1.104 0 1.999-.896 1.999-2v-3.999c0-1.104-.896-2-1.999-2-1.105 0-2 .896-2 2v3.999c0 1.104.895 2 2 2zm0 4c-6.627 0-11.999 5.371-11.999 11.998 0 1.404.254 2.747.697 3.999h4.381c-.683-1.177-1.079-2.54-1.079-3.999 0-4.418 3.582-7.999 8-7.999 4.417 0 7.998 3.581 7.998 7.999 0 1.459-.396 2.822-1.078 3.999h4.381c.443-1.252.697-2.595.697-3.999 0-6.627-5.372-11.998-11.998-11.998zm0 16.247c.552 0 .999-.447.999-1v-3.827l2.536 2.535c.39.391 1.023.391 1.414 0 .39-.391.39-1.023 0-1.414l-4.242-4.242c-.391-.391-1.024-.391-1.414 0l-4.242 4.242c-.391.391-.391 1.023 0 1.414s1.023.391 1.414 0l2.535-2.535v3.827c0 .553.447 1 1 1z"/>
		<path id="moon-0" d="M50 61.998c-6.627 0-11.999-5.372-11.999-11.998 0-6.627 5.372-11.999 11.999-11.999 6.626 0 11.998 5.372 11.998 11.999 0 6.626-5.372 11.998-11.998 11.998z"/>
		<path id="moon-100" d="M50 61.998c-6.627 0-12-5.372-12-11.999 0-6.626 5.373-11.998 12-11.998s11.998 5.372 11.998 11.998c0 6.627-5.371 11.999-11.998 11.999zm0-19.997c-4.418 0-8 3.581-8 7.998 0 4.418 3.582 7.999 8 7.999s7.998-3.581 7.998-7.999c0-4.417-3.58-7.998-7.998-7.998z"/>
		<path id="moon-waning-25" d="M50 61.998c-6.626 0-11.999-5.371-11.999-11.998S43.374 38.001 50 38.001c6.627 0 11.999 5.372 11.999 11.999S56.627 61.998 50 61.998zm2-19.734c-.641-.166-1.308-.262-2-.262-4.417 0-7.999 3.58-7.999 7.998s3.582 7.998 7.999 7.998c.692 0 1.359-.096 2-.262-3.448-.889-5.999-4.01-5.999-7.736s2.551-6.848 5.999-7.736z"/>
		<path id="moon-waning-50" d="M50 61.998c6.625 0 11.998-5.371 11.998-11.999 0-6.626-5.373-11.998-11.998-11.998-6.627 0-12 5.372-12 11.998 0 6.628 5.373 11.999 12 11.999zm0-4c-4.418 0-8-3.58-8-7.999 0-4.417 3.582-7.998 8-7.998v15.997z"/>
		<path id="moon-waning-75" d="M50 61.998c6.625 0 11.998-5.371 11.998-11.998S56.625 38.001 50 38.001c-6.627 0-12 5.372-12 11.999s5.373 11.998 12 11.998zm0-19.996c2.209 0 3.998 3.58 3.998 7.998S52.209 57.998 50 57.998c-4.418 0-8-3.58-8-7.998s3.582-7.998 8-7.998z"/>
		<path id="moon-waxing-25" d="M50 61.999c6.627 0 11.999-5.373 11.999-11.998 0-6.627-5.372-12-11.999-12-6.626 0-11.998 5.373-11.998 12 0 6.625 5.372 11.998 11.998 11.998zm-1.999-19.736c.64-.164 1.308-.262 1.999-.262 4.418 0 7.999 3.582 7.999 8 0 4.416-3.581 7.998-7.999 7.998-.691 0-1.359-.098-1.999-.262C51.449 56.849 54 53.726 54 50.001c0-3.727-2.551-6.848-5.999-7.738z"/>
		<path id="moon-waxing-50" d="M50 61.998c-6.627 0-11.998-5.372-11.998-11.998 0-6.627 5.371-11.999 11.998-11.999S61.999 43.373 61.999 50c0 6.626-5.372 11.998-11.999 11.998zm0-3.999c4.418 0 7.999-3.582 7.999-7.999 0-4.418-3.581-7.999-7.999-7.999v15.998z"/>
		<path id="moon-waxing-75" d="M50 61.998c-6.627 0-11.998-5.372-11.998-11.999 0-6.626 5.371-11.998 11.998-11.998s11.998 5.372 11.998 11.998c0 6.627-5.371 11.999-11.998 11.999zm0-19.997c-2.209 0-4 3.581-4 7.998 0 4.418 1.791 7.999 4 7.999 4.418 0 7.999-3.581 7.999-7.999 0-4.417-3.581-7.998-7.999-7.998z"/>
	</defs>


	<!-- Außen -->
	<text x="1" y="25" font-size="30">$TEXT bei</text>
	<text x="-5" y="127" font-size="120">$C_TEMP</text>
	<use transform="matrix(5.4 0 0 5.4 210 20)" width="100%" height="100%" xlink:href="#$C_ICON"/>
	<text x="3" y="148" font-size="16">MIN</text>
	<text x="2" y="178" font-size="35">$C_TEM_MIN</text>
	<text x="110" y="148" font-size="16">MAX</text>
	<text x="109" y="178" font-size="35">$C_TEM_MAX</text>
	
	<text x="2" y="196" font-size="10">Luftfeuchtigkeit (%)</text>
	<text x="27" y="246" font-size="60">$C_HUMI</text>
	<text x="2" y="209" font-size="9">MIN</text>
	<text x="2" y="224" font-size="16">$C_HUM_MIN</text>
	<text x="2" y="234" font-size="9">MAX</text>
	<text x="2" y="249" font-size="16">$C_HUM_MAX</text>

	<text x="235" y="196" font-size="10" text-anchor="end">Regen (mm/24h)</text>
	<text x="235" y="249" font-size="60" text-anchor="end">$C_RAIN</text>
	<!-- <text x="380" y="278" font-size="30" text-anchor="end">¤</text>-->

	<text x="394" y="196" font-size="10" text-anchor="end">Wind (Richtung + km/h)</text>
	<text x="394" y="216" font-size="16" text-anchor="end">$C_WIN_DIR</text>
	<text x="364" y="249" font-size="60" text-anchor="end">$C_WIND</text>
	<text x="394" y="234" font-size="9" text-anchor="end">MAX</text>
	<text x="393" y="249" font-size="16" text-anchor="end">$C_WIN_MAX</text>
	<!-- <text font-size="10" text-anchor="end">≈</text> -->


	<!-- Sonnenauf- und Sonnenuntergang -->
	<text x="2" y="268" font-size="10">Sonnenaufgang</text>
	<use transform="translate(-8 260) scale(.42)" width="100%" height="100%" xlink:href="#sunrise"/>
	<text x="27" y="290" font-size="22">$C_SUNRISE</text>
	<text x="235" y="268" font-size="10" text-anchor="end">Sonnenuntergang</text>
	<use transform="translate(137 260) scale(.42)" width="100%" height="100%" xlink:href="#sunset"/>
	<text x="235" y="290" font-size="22" text-anchor="end">$C_SUNSET</text>


	<!-- Mondphase -->
	<text x="394" y="268" font-size="10" text-anchor="end">Mondphase</text>
	<use transform="translate(302 247) scale(.70)" width="100%" height="100%" xlink:href="#$C_MOO_ICO"/>
	<text x="377" y="290" font-size="22" text-anchor="end">$C_MOON</text>
	<text x="394" y="289" font-size="14" text-anchor="end">%</text>



	<!-- Trenner -->
	<path d="M2,296 h400" fill="black" stroke="black" stroke-width="2" />



	<!-- Wettervorschau 3 Tage --> 
	<text x="2" y="310" font-size="10">Wochentag</text>
	<text x="2" y="326" font-size="10">$DAYTXT</text>

	<text x="180" y="310" font-size="10" text-anchor="end">Höchst-</text>
	<text x="180" y="326" font-size="10" text-anchor="end">temp.</text>

	<text x="253" y="310" font-size="10" text-anchor="end">Tiefst-</text>
	<text x="253" y="326" font-size="10" text-anchor="end">temp.</text>

	<text x="321" y="310" font-size="10" text-anchor="end">Wind-</text>
	<text x="321" y="326" font-size="10" text-anchor="end">gesch.</text>

	<text x="400" y="310" font-size="10" text-anchor="end">Regen-</text>
	<text x="400" y="326" font-size="10" text-anchor="end">wahrsch.</text>

	<text x="472" y="310" font-size="10" text-anchor="end">Regen</text>
	<text x="472" y="326" font-size="10" text-anchor="end">(mm)</text>


	<use transform="matrix(1.1 0 0 1.1 74 333)" width="100%" height="100%" xlink:href="#$D_ICON1"/>
	<text x="-1" y="365" font-size="40">$D_DAYN1</text>
	<text x="180" y="365" font-size="40" text-anchor="end">$D_TEM_HIG1</text>
	<text x="253" y="365" font-size="40" text-anchor="end">$D_TEM_LOW1</text>
	<text x="182" y="352" font-size="25" text-anchor="start">°</text>
	<text x="255" y="352" font-size="25" text-anchor="start">°</text>
	<text x="321" y="365" font-size="35" text-anchor="end">$D_WIND1</text>
	<text x="323" y="365" font-size="10" text-anchor="start">km/h</text>
	<text x="400" y="365" font-size="35" text-anchor="end">$D_RAI_PER1</text>
	<text x="402" y="365" font-size="10" text-anchor="start">%</text>
	<text x="472" y="365" font-size="35" text-anchor="end">$D_RAI_MM1</text>

	<use transform="matrix(1.1 0 0 1.1 74 378)" width="100%" height="100%" xlink:href="#$D_ICON2"/>
	<text x="-1" y="412" font-size="40">$D_DAYN2</text>
	<text x="180" y="412" font-size="40" text-anchor="end">$D_TEM_HIG2</text>
	<text x="253" y="412" font-size="40" text-anchor="end">$D_TEM_LOW2</text>
	<text x="182" y="399" font-size="25" text-anchor="start">°</text>
	<text x="255" y="399" font-size="25" text-anchor="start">°</text>
	<text x="321" y="412" font-size="35" text-anchor="end">$D_WIND2</text>
	<text x="323" y="412" font-size="10" text-anchor="start">km/h</text>
	<text x="400" y="412" font-size="35" text-anchor="end">$D_RAI_PER2</text>
	<text x="402" y="412" font-size="10" text-anchor="start">%</text>
	<text x="472" y="412" font-size="35" text-anchor="end">$D_RAI_MM2</text>

	<use transform="matrix(1.1 0 0 1.1 74 426)" width="100%" height="100%" xlink:href="#$D_ICON3"/>
	<text x="-1" y="459" font-size="40">$D_DAYN3</text>
	<text x="180" y="459" font-size="40" text-anchor="end">$D_TEM_HIG3</text>
	<text x="253" y="459" font-size="40" text-anchor="end">$D_TEM_LOW3</text>
	<text x="182" y="446" font-size="25" text-anchor="start">°</text>
	<text x="255" y="446" font-size="25" text-anchor="start">°</text>
	<text x="321" y="459" font-size="35" text-anchor="end">$D_WIND3</text>
	<text x="323" y="459" font-size="10" text-anchor="start">km/h</text>
	<text x="400" y="459" font-size="35" text-anchor="end">$D_RAI_PER3</text>
	<text x="402" y="459" font-size="10" text-anchor="start">%</text>
	<text x="472" y="459" font-size="35" text-anchor="end">$D_RAI_MM3</text>


  	
  	<!-- Trenner -->
  	<path d="M400,2 v288" fill="black" stroke="black" stroke-width="2" />
  	<path d="M480,302 v158" fill="black" stroke="black" stroke-width="2" />



	<!-- Wettervorschau 24 Stunden -->
	<text x="427" y="13" font-size="13" text-anchor="middle">$H_TIM01 Uhr</text>
	<text x="477" y="13" font-size="13" text-anchor="middle">$H_TIM02 Uhr</text>
	<text x="527" y="13" font-size="13" text-anchor="middle">$H_TIM03 Uhr</text>
	<text x="577" y="13" font-size="13" text-anchor="middle">$H_TIM04 Uhr</text>
	<text x="627" y="13" font-size="13" text-anchor="middle">$H_TIM05 Uhr</text>
	<text x="677" y="13" font-size="13" text-anchor="middle">$H_TIM06 Uhr</text>
	<text x="727" y="13" font-size="13" text-anchor="middle">$H_TIM07 Uhr</text>
	<text x="777" y="13" font-size="13" text-anchor="middle">$H_TIM08 Uhr</text>

	<use id="notRainy01" transform="matrix(1.4 0 0 1.4 404 16)" width="100%" height="100%" xlink:href="#$H_ICO01"/>
	<use id="notRainy02" transform="matrix(1.4 0 0 1.4 454 16)" width="100%" height="100%" xlink:href="#$H_ICO02"/>
	<use id="notRainy03" transform="matrix(1.4 0 0 1.4 504 16)" width="100%" height="100%" xlink:href="#$H_ICO03"/>
	<use id="notRainy04" transform="matrix(1.4 0 0 1.4 554 16)" width="100%" height="100%" xlink:href="#$H_ICO04"/>
	<use id="notRainy05" transform="matrix(1.4 0 0 1.4 604 16)" width="100%" height="100%" xlink:href="#$H_ICO05"/>
	<use id="notRainy06" transform="matrix(1.4 0 0 1.4 654 16)" width="100%" height="100%" xlink:href="#$H_ICO06"/>
	<use id="notRainy07" transform="matrix(1.4 0 0 1.4 704 16)" width="100%" height="100%" xlink:href="#$H_ICO07"/>
	<use id="notRainy08" transform="matrix(1.4 0 0 1.4 754 16)" width="100%" height="100%" xlink:href="#$H_ICO08"/>

	<use id="rainy01" transform="matrix(1.1 0 0 1.1 408 16)" width="100%" height="100%" xlink:href="#$H_ICO01"/>
	<use id="rainy02" transform="matrix(1.1 0 0 1.1 458 16)" width="100%" height="100%" xlink:href="#$H_ICO02"/>
	<use id="rainy03" transform="matrix(1.1 0 0 1.1 508 16)" width="100%" height="100%" xlink:href="#$H_ICO03"/>
	<use id="rainy04" transform="matrix(1.1 0 0 1.1 558 16)" width="100%" height="100%" xlink:href="#$H_ICO04"/>
	<use id="rainy05" transform="matrix(1.1 0 0 1.1 608 16)" width="100%" height="100%" xlink:href="#$H_ICO05"/>
	<use id="rainy06" transform="matrix(1.1 0 0 1.1 658 16)" width="100%" height="100%" xlink:href="#$H_ICO06"/>
	<use id="rainy07" transform="matrix(1.1 0 0 1.1 708 16)" width="100%" height="100%" xlink:href="#$H_ICO07"/>
	<use id="rainy08" transform="matrix(1.1 0 0 1.1 758 16)" width="100%" height="100%" xlink:href="#$H_ICO08"/>
	
	<text id="rainy01" x="427" y="58" font-size="8" font-weight="bold" text-anchor="middle">$H_RAI01</text>
	<text id="rainy02" x="477" y="58" font-size="8" font-weight="bold" text-anchor="middle">$H_RAI02</text>
	<text id="rainy03" x="527" y="58" font-size="8" font-weight="bold" text-anchor="middle">$H_RAI03</text>
	<text id="rainy04" x="577" y="58" font-size="8" font-weight="bold" text-anchor="middle">$H_RAI04</text>
	<text id="rainy05" x="627" y="58" font-size="8" font-weight="bold" text-anchor="middle">$H_RAI05</text>
	<text id="rainy06" x="677" y="58" font-size="8" font-weight="bold" text-anchor="middle">$H_RAI06</text>
	<text id="rainy07" x="727" y="58" font-size="8" font-weight="bold" text-anchor="middle">$H_RAI07</text>
	<text id="rainy08" x="777" y="58" font-size="8" font-weight="bold" text-anchor="middle">$H_RAI08</text>

	<text x="427" y="76" font-size="16" font-weight="bold" text-anchor="middle">$H_TMP01</text>	
	<text x="477" y="76" font-size="16" font-weight="bold" text-anchor="middle">$H_TMP02</text>
	<text x="527" y="76" font-size="16" font-weight="bold" text-anchor="middle">$H_TMP03</text>
	<text x="577" y="76" font-size="16" font-weight="bold" text-anchor="middle">$H_TMP04</text>
	<text x="627" y="76" font-size="16" font-weight="bold" text-anchor="middle">$H_TMP05</text>
	<text x="677" y="76" font-size="16" font-weight="bold" text-anchor="middle">$H_TMP06</text>
	<text x="727" y="76" font-size="16" font-weight="bold" text-anchor="middle">$H_TMP07</text>
	<text x="777" y="76" font-size="16" font-weight="bold" text-anchor="middle">$H_TMP08</text>

	<text x="427" y="88" font-size="8" font-weight="bold" text-anchor="middle">$H_WSP01</text>
	<text x="477" y="88" font-size="8" font-weight="bold" text-anchor="middle">$H_WSP02</text>
	<text x="527" y="88" font-size="8" font-weight="bold" text-anchor="middle">$H_WSP03</text>
	<text x="577" y="88" font-size="8" font-weight="bold" text-anchor="middle">$H_WSP04</text>
	<text x="627" y="88" font-size="8" font-weight="bold" text-anchor="middle">$H_WSP05</text>
	<text x="677" y="88" font-size="8" font-weight="bold" text-anchor="middle">$H_WSP06</text>
	<text x="727" y="88" font-size="8" font-weight="bold" text-anchor="middle">$H_WSP07</text>
	<text x="777" y="88" font-size="8" font-weight="bold" text-anchor="middle">$H_WSP08</text>


	<text x="427" y="114" font-size="13" text-anchor="middle">$H_TIM09 Uhr</text>
	<text x="477" y="114" font-size="13" text-anchor="middle">$H_TIM10 Uhr</text>
	<text x="527" y="114" font-size="13" text-anchor="middle">$H_TIM11 Uhr</text>
	<text x="577" y="114" font-size="13" text-anchor="middle">$H_TIM12 Uhr</text>
	<text x="627" y="114" font-size="13" text-anchor="middle">$H_TIM13 Uhr</text>
	<text x="677" y="114" font-size="13" text-anchor="middle">$H_TIM14 Uhr</text>
	<text x="727" y="114" font-size="13" text-anchor="middle">$H_TIM15 Uhr</text>
	<text x="777" y="114" font-size="13" text-anchor="middle">$H_TIM16 Uhr</text>

	<use id="notRainy09" transform="matrix(1.4 0 0 1.4 404 117)" width="100%" height="100%" xlink:href="#$H_ICO09"/>
	<use id="notRainy10" transform="matrix(1.4 0 0 1.4 454 117)" width="100%" height="100%" xlink:href="#$H_ICO10"/>
	<use id="notRainy11" transform="matrix(1.4 0 0 1.4 504 117)" width="100%" height="100%" xlink:href="#$H_ICO11"/>
	<use id="notRainy12" transform="matrix(1.4 0 0 1.4 554 117)" width="100%" height="100%" xlink:href="#$H_ICO12"/>
	<use id="notRainy13" transform="matrix(1.4 0 0 1.4 604 117)" width="100%" height="100%" xlink:href="#$H_ICO13"/>
	<use id="notRainy14" transform="matrix(1.4 0 0 1.4 654 117)" width="100%" height="100%" xlink:href="#$H_ICO14"/>
	<use id="notRainy15" transform="matrix(1.4 0 0 1.4 704 117)" width="100%" height="100%" xlink:href="#$H_ICO15"/>
	<use id="notRainy16" transform="matrix(1.4 0 0 1.4 754 117)" width="100%" height="100%" xlink:href="#$H_ICO16"/>

	<use id="rainy09" transform="matrix(1.1 0 0 1.1 408 117)" width="100%" height="100%" xlink:href="#$H_ICO09"/>
	<use id="rainy10" transform="matrix(1.1 0 0 1.1 458 117)" width="100%" height="100%" xlink:href="#$H_ICO10"/>
	<use id="rainy11" transform="matrix(1.1 0 0 1.1 508 117)" width="100%" height="100%" xlink:href="#$H_ICO11"/>
	<use id="rainy12" transform="matrix(1.1 0 0 1.1 558 117)" width="100%" height="100%" xlink:href="#$H_ICO12"/>
	<use id="rainy13" transform="matrix(1.1 0 0 1.1 608 117)" width="100%" height="100%" xlink:href="#$H_ICO13"/>
	<use id="rainy14" transform="matrix(1.1 0 0 1.1 658 117)" width="100%" height="100%" xlink:href="#$H_ICO14"/>
	<use id="rainy15" transform="matrix(1.1 0 0 1.1 708 117)" width="100%" height="100%" xlink:href="#$H_ICO15"/>
	<use id="rainy16" transform="matrix(1.1 0 0 1.1 758 117)" width="100%" height="100%" xlink:href="#$H_ICO16"/>
	
	<text id="rainy09" x="427" y="159" font-size="8" font-weight="bold" text-anchor="middle">$H_RAI09</text>
	<text id="rainy10" x="477" y="159" font-size="8" font-weight="bold" text-anchor="middle">$H_RAI10</text>
	<text id="rainy11" x="527" y="159" font-size="8" font-weight="bold" text-anchor="middle">$H_RAI11</text>
	<text id="rainy12" x="577" y="159" font-size="8" font-weight="bold" text-anchor="middle">$H_RAI12</text>
	<text id="rainy13" x="627" y="159" font-size="8" font-weight="bold" text-anchor="middle">$H_RAI13</text>
	<text id="rainy14" x="677" y="159" font-size="8" font-weight="bold" text-anchor="middle">$H_RAI14</text>
	<text id="rainy15" x="727" y="159" font-size="8" font-weight="bold" text-anchor="middle">$H_RAI15</text>
	<text id="rainy16" x="777" y="159" font-size="8" font-weight="bold" text-anchor="middle">$H_RAI16</text>

	<text x="427" y="177" font-size="16" font-weight="bold" text-anchor="middle">$H_TMP09</text>
	<text x="477" y="177" font-size="16" font-weight="bold" text-anchor="middle">$H_TMP10</text>
	<text x="527" y="177" font-size="16" font-weight="bold" text-anchor="middle">$H_TMP11</text>
	<text x="577" y="177" font-size="16" font-weight="bold" text-anchor="middle">$H_TMP12</text>
	<text x="627" y="177" font-size="16" font-weight="bold" text-anchor="middle">$H_TMP13</text>
	<text x="677" y="177" font-size="16" font-weight="bold" text-anchor="middle">$H_TMP14</text>
	<text x="727" y="177" font-size="16" font-weight="bold" text-anchor="middle">$H_TMP15</text>
	<text x="777" y="177" font-size="16" font-weight="bold" text-anchor="middle">$H_TMP16</text>

	<text x="427" y="189" font-size="8" font-weight="bold" text-anchor="middle">$H_WSP09</text>
	<text x="477" y="189" font-size="8" font-weight="bold" text-anchor="middle">$H_WSP10</text>
	<text x="527" y="189" font-size="8" font-weight="bold" text-anchor="middle">$H_WSP11</text>
	<text x="577" y="189" font-size="8" font-weight="bold" text-anchor="middle">$H_WSP12</text>
	<text x="627" y="189" font-size="8" font-weight="bold" text-anchor="middle">$H_WSP13</text>
	<text x="677" y="189" font-size="8" font-weight="bold" text-anchor="middle">$H_WSP14</text>
	<text x="727" y="189" font-size="8" font-weight="bold" text-anchor="middle">$H_WSP15</text>
	<text x="777" y="189" font-size="8" font-weight="bold" text-anchor="middle">$H_WSP16</text>


	<text x="427" y="214" font-size="13" text-anchor="middle">$H_TIM17 Uhr</text>
	<text x="477" y="214" font-size="13" text-anchor="middle">$H_TIM18 Uhr</text>
	<text x="527" y="214" font-size="13" text-anchor="middle">$H_TIM19 Uhr</text>
	<text x="577" y="214" font-size="13" text-anchor="middle">$H_TIM20 Uhr</text>
	<text x="627" y="214" font-size="13" text-anchor="middle">$H_TIM21 Uhr</text>
	<text x="677" y="214" font-size="13" text-anchor="middle">$H_TIM22 Uhr</text>
	<text x="727" y="214" font-size="13" text-anchor="middle">$H_TIM23 Uhr</text>
	<text x="777" y="214" font-size="13" text-anchor="middle">$H_TIM24 Uhr</text>

	<use id="notRainy17" transform="matrix(1.4 0 0 1.4 404 217)" width="100%" height="100%" xlink:href="#$H_ICO17"/>
	<use id="notRainy18" transform="matrix(1.4 0 0 1.4 454 217)" width="100%" height="100%" xlink:href="#$H_ICO18"/>
	<use id="notRainy19" transform="matrix(1.4 0 0 1.4 504 217)" width="100%" height="100%" xlink:href="#$H_ICO19"/>
	<use id="notRainy20" transform="matrix(1.4 0 0 1.4 554 217)" width="100%" height="100%" xlink:href="#$H_ICO20"/>
	<use id="notRainy21" transform="matrix(1.4 0 0 1.4 604 217)" width="100%" height="100%" xlink:href="#$H_ICO21"/>
	<use id="notRainy22" transform="matrix(1.4 0 0 1.4 654 217)" width="100%" height="100%" xlink:href="#$H_ICO22"/>
	<use id="notRainy23" transform="matrix(1.4 0 0 1.4 704 217)" width="100%" height="100%" xlink:href="#$H_ICO23"/>
	<use id="notRainy24" transform="matrix(1.4 0 0 1.4 754 217)" width="100%" height="100%" xlink:href="#$H_ICO24"/>

	<use id="rainy17" transform="matrix(1.1 0 0 1.1 408 217)" width="100%" height="100%" xlink:href="#$H_ICO17"/>
	<use id="rainy18" transform="matrix(1.1 0 0 1.1 458 217)" width="100%" height="100%" xlink:href="#$H_ICO18"/>
	<use id="rainy19" transform="matrix(1.1 0 0 1.1 508 217)" width="100%" height="100%" xlink:href="#$H_ICO19"/>
	<use id="rainy20" transform="matrix(1.1 0 0 1.1 558 217)" width="100%" height="100%" xlink:href="#$H_ICO20"/>
	<use id="rainy21" transform="matrix(1.1 0 0 1.1 608 217)" width="100%" height="100%" xlink:href="#$H_ICO21"/>
	<use id="rainy22" transform="matrix(1.1 0 0 1.1 658 217)" width="100%" height="100%" xlink:href="#$H_ICO22"/>
	<use id="rainy23" transform="matrix(1.1 0 0 1.1 708 217)" width="100%" height="100%" xlink:href="#$H_ICO23"/>
	<use id="rainy24" transform="matrix(1.1 0 0 1.1 758 217)" width="100%" height="100%" xlink:href="#$H_ICO24"/>

	<text id="rainy17" x="427" y="259" font-size="8" font-weight="bold" text-anchor="middle">$H_RAI17</text>
	<text id="rainy18" x="477" y="259" font-size="8" font-weight="bold" text-anchor="middle">$H_RAI18</text>
	<text id="rainy19" x="527" y="259" font-size="8" font-weight="bold" text-anchor="middle">$H_RAI19</text>
	<text id="rainy20" x="577" y="259" font-size="8" font-weight="bold" text-anchor="middle">$H_RAI20</text>
	<text id="rainy21" x="627" y="259" font-size="8" font-weight="bold" text-anchor="middle">$H_RAI21</text>
	<text id="rainy22" x="677" y="259" font-size="8" font-weight="bold" text-anchor="middle">$H_RAI22</text>
	<text id="rainy23" x="727" y="259" font-size="8" font-weight="bold" text-anchor="middle">$H_RAI23</text>
	<text id="rainy24" x="777" y="259" font-size="8" font-weight="bold" text-anchor="middle">$H_RAI24</text>

	<text x="427" y="277" font-size="16" font-weight="bold" text-anchor="middle">$H_TMP17</text>
	<text x="477" y="277" font-size="16" font-weight="bold" text-anchor="middle">$H_TMP18</text>
	<text x="527" y="277" font-size="16" font-weight="bold" text-anchor="middle">$H_TMP19</text>
	<text x="577" y="277" font-size="16" font-weight="bold" text-anchor="middle">$H_TMP20</text>
	<text x="627" y="277" font-size="16" font-weight="bold" text-anchor="middle">$H_TMP21</text>
	<text x="677" y="277" font-size="16" font-weight="bold" text-anchor="middle">$H_TMP22</text>
	<text x="727" y="277" font-size="16" font-weight="bold" text-anchor="middle">$H_TMP23</text>
	<text x="777" y="277" font-size="16" font-weight="bold" text-anchor="middle">$H_TMP24</text>

	<text x="427" y="289" font-size="8" font-weight="bold" text-anchor="middle">$H_WSP17</text>
	<text x="477" y="289" font-size="8" font-weight="bold" text-anchor="middle">$H_WSP18</text>
	<text x="527" y="289" font-size="8" font-weight="bold" text-anchor="middle">$H_WSP19</text>
	<text x="577" y="289" font-size="8" font-weight="bold" text-anchor="middle">$H_WSP20</text>
	<text x="627" y="289" font-size="8" font-weight="bold" text-anchor="middle">$H_WSP21</text>
	<text x="677" y="289" font-size="8" font-weight="bold" text-anchor="middle">$H_WSP22</text>
	<text x="727" y="289" font-size="8" font-weight="bold" text-anchor="middle">$H_WSP23</text>
	<text x="777" y="289" font-size="8" font-weight="bold" text-anchor="middle">$H_WSP24</text>

	

	<!-- Trenner -->
	<path d="M399,296 h399" fill="black" stroke="black" stroke-width="2" />



	<!-- Innen -->
	<text x="485" y="317" font-size="20">$ROOM1</text>

	<text x="486" y="332" font-size="10">Temperatur (°C)</text>
	<text x="525" y="385" font-size="60">$I_TEMP</text>
	<text x="486" y="345" font-size="9">MIN</text>
	<text x="486" y="360" font-size="16">$I_TEM_MIN</text>
	<text x="486" y="370" font-size="9">MAX</text>
	<text x="486" y="385" font-size="16">$I_TEM_MAX</text>

	<text x="798" y="332" font-size="10" text-anchor="end">Luftfeuchtigkeit (%)</text>	
	<text x="768" y="385" font-size="60" text-anchor="end">$I_HUMI</text>
	<text x="798" y="345" font-size="9" text-anchor="end">MIN</text>
	<text x="798" y="360" font-size="16" text-anchor="end">$I_HUM_MIN</text>
	<text x="798" y="370" font-size="9" text-anchor="end">MAX</text>
	<text x="798" y="385" font-size="16" text-anchor="end">$I_HUM_MAX</text>


	<text x="704" y="681" font-size="20" text-anchor="end">$ROOM2</text>

	<text x="486" y="405" font-size="10">Luftqualität (ppm)</text>
	<text x="525" y="458" font-size="60">$I_AIRQ</text>
	<text x="486" y="418" font-size="9">MIN</text>
	<text x="486" y="432" font-size="16">$I_AIR_MIN</text>
	<text x="486" y="442" font-size="9">MAX</text>
	<text x="486" y="457" font-size="16">$I_AIR_MAX</text>

	<text x="798" y="405" font-size="10" text-anchor="end">Lautstärke (dB)</text>
	<text x="768" y="458" font-size="60" text-anchor="end">$I_NOIS</text>
	<text x="798" y="418" font-size="9" text-anchor="end">MIN</text>
	<text x="798" y="432" font-size="16" text-anchor="end">$I_NOI_MIN</text>
	<text x="798" y="442" font-size="9" text-anchor="end">MAX</text>
	<text x="798" y="457" font-size="16" text-anchor="end">$I_NOI_MAX</text>
	


	<!-- Trenner -->
  	<path d="M2,466 h796" fill="black" stroke="black" stroke-width="2" />



	<!-- Infos -->
	<text x="2" y="478" font-size="11.3">$TIME für $LOC</text>
	<!-- <text x="2" y="478" font-size="12">$TIME</text> -->
	<!-- <text x="343" y="478" font-size="12">$LOC</text> -->
	<!-- <text x="790" y="475" font-size="12" text-anchor="end">Weather Underground + Netatmo Wetterstation</text> -->
</svg>