<svg width="800" height="480"
	xmlns="http://www.w3.org/2000/svg"
	xmlns:xlink="http://www.w3.org/1999/xlink">


	<style>
		text {
	      <!-- font-family: "Arial", sans-serif; -->
	      <!-- font-family: "DejaVu Sans" -->
	      <!-- font-family: "Roboto"; -->
	      font-family: "Roboto Regular"
	      <!-- font-family: "Roboto Medium" -->
	      <!-- font-family: "Roboto Black" -->
	      <!-- font-family: "Roboto Bold" -->
	      <!-- font-family: "DejaVu Sans Mono" -->
	      <!-- font-family: "Inconsolata" -->     
		}
	</style>



	<!-- Wettericons -->
	<defs>
		<path id="clear-day" d="M12 3V4M12 20V21M4 12H3M6.31412 6.31412L5.5 5.5M17.6859 6.31412L18.5 5.5M6.31412 17.69L5.5 18.5001M17.6859 17.69L18.5 18.5001M21 12H20M16 12C16 14.2091 14.2091 16 12 16C9.79086 16 8 14.2091 8 12C8 9.79086 9.79086 8 12 8C14.2091 8 16 9.79086 16 12Z" stroke="#000000" stroke-width="2" stroke-linecap="round" stroke-linejoin="round" fill="none"/>
		
		<path id="clear-night" d="M13 6V3M18.5 12V7M14.5 4.5H11.5M21 9.5H16M15.5548 16.8151C16.7829 16.8151 17.9493 16.5506 19 16.0754C17.6867 18.9794 14.7642 21 11.3698 21C6.74731 21 3 17.2527 3 12.6302C3 9.23576 5.02061 6.31331 7.92462 5C7.44944 6.05072 7.18492 7.21708 7.18492 8.44523C7.18492 13.0678 10.9322 16.8151 15.5548 16.8151Z" stroke="#000000" stroke-width="2" stroke-linecap="round" stroke-linejoin="round" fill="none"/>
		
		<path id="partly-cloudy-day" d="M7.45508 2V3M11.3438 3.61084L10.6366 4.31795M4.27344 10.6821L3.56633 11.3892M1.95508 7.5H2.95508M3.56641 3.61084L4.27351 4.31795M6.50049 9.21251C6.38862 9.15163 6.2832 9.08038 6.18553 9.00006C5.73952 8.63325 5.45508 8.07714 5.45508 7.45459C5.45508 6.35002 6.35051 5.45459 7.45508 5.45459C8.21398 5.45459 8.87416 5.87727 9.21303 6.50006C9.29756 6.65541 9.3621 6.82321 9.40319 7M9.8 21C7.14903 21 5 18.9466 5 16.4137C5 14.3144 6.6 12.375 9 12C9.75283 10.274 11.5346 9 13.6127 9C16.2747 9 18.4504 10.9907 18.6 13.5C20.0127 14.0956 21 15.5574 21 17.1402C21 19.2719 19.2091 21 17 21L9.8 21Z" stroke="#000000" stroke-width="2" stroke-linecap="round" stroke-linejoin="round" fill="none"/>
		
		<path id="partly-cloudy-night" d="M21 15.5018C18.651 14.5223 17 12.2039 17 9.5C17 6.79774 18.6534 4.48062 21 3.5C20.2304 3.17906 19.3859 3 18.5 3C15.7977 3 13.4806 4.64899 12.5 6.9956M6.9 21C4.74609 21 3 19.2889 3 17.1781C3 15.4286 4.3 13.8125 6.25 13.5C6.86168 12.0617 8.30934 11 9.9978 11C12.1607 11 13.9285 12.6589 14.05 14.75C15.1978 15.2463 16 16.4645 16 17.7835C16 19.5599 14.5449 21 12.75 21L6.9 21Z" stroke="#000000" stroke-width="2" stroke-linecap="round" stroke-linejoin="round" fill="none"/>
		
		<path id="cloudy" d="M5.38846 12.7023C3.98522 12.1237 3 10.7636 3 9.17807C3 7.42863 4.3 5.8125 6.25 5.5C6.86168 4.0617 8.30934 3 9.9978 3C12.1607 3 13.9285 4.65893 14.05 6.75C14.8721 7.10549 15.5169 7.83126 15.8166 8.69914M5.38846 12.7023C4.50928 13.5938 4 14.7867 4 16.0315C4 18.7755 6.28335 21 9.1 21L16.75 21C19.0972 21 21 19.1279 21 16.8185C21 15.1039 19.951 13.5202 18.45 12.875C18.3457 11.0905 17.3135 9.5483 15.8166 8.69914M5.38846 12.7023C6.11557 11.9651 7.0957 11.4339 8.25 11.25C9.04989 9.3802 10.943 8 13.151 8C14.1227 8 15.0333 8.25474 15.8166 8.69914" stroke="#000000" stroke-width="2" stroke-linecap="round" stroke-linejoin="round" fill="none"/>
		
		<path id="rain" d="M16 13V20M4 14.7519C3.37037 13.8768 3 12.8059 3 11.6493C3 9.20008 4.8 6.9375 7.5 6.5C8.34694 4.48637 10.3514 3 12.6893 3C15.684 3 18.1317 5.32251 18.3 8.25C19.8893 8.94488 21 10.6503 21 12.4969C21 13.4232 20.7205 14.2842 20.2413 15M12 14V21M8 13V20" stroke="#000000" stroke-width="2" stroke-linecap="round" stroke-linejoin="round" fill="none"/>
		
		<path id="thunder" d="M13 11L10 16H15L12 21M6 16.4438C4.22194 15.5683 3 13.7502 3 11.6493C3 9.20008 4.8 6.9375 7.5 6.5C8.34694 4.48637 10.3514 3 12.6893 3C15.684 3 18.1317 5.32251 18.3 8.25C19.8893 8.94488 21 10.6503 21 12.4969C21 14.0582 20.206 15.4339 19 16.2417" stroke="#000000" stroke-width="2" stroke-linecap="round" stroke-linejoin="round" fill="none"/>
		
		<path id="fog" d="M3 18H7M10 18H21M5 21H12M16 21H19M8.8 15C6.14903 15 4 12.9466 4 10.4137C4 8.31435 5.6 6.375 8 6C8.75283 4.27403 10.5346 3 12.6127 3C15.2747 3 17.4504 4.99072 17.6 7.5C19.0127 8.09561 20 9.55741 20 11.1402C20 13.2719 18.2091 15 16 15L8.8 15Z" stroke="#000000" stroke-width="2" stroke-linecap="round" stroke-linejoin="round" fill="none"/>
		
		<path id="wind" d="M15.7639 7C16.3132 6.38625 17.1115 6 18 6C19.6569 6 21 7.34315 21 9C21 10.6569 19.6569 12 18 12H3M8.50926 4.66667C8.87548 4.2575 9.40767 4 10 4C11.1046 4 12 4.89543 12 6C12 7.10457 11.1046 8 10 8H3M11.5093 19.3333C11.8755 19.7425 12.4077 20 13 20C14.1046 20 15 19.1046 15 18C15 16.8954 14.1046 16 13 16H3" stroke="#000000" stroke-width="2" stroke-linecap="round" stroke-linejoin="round" fill="none"/>
				
		<path id="snow" d="M9 18H9.01M15 18H15.01M9 20.5H9.01M12 18H12.01M12 21H12.01M15 20.5H15.01M8.8 15C6.14903 15 4 12.9466 4 10.4137C4 8.31435 5.6 6.375 8 6C8.75283 4.27403 10.5346 3 12.6127 3C15.2747 3 17.4504 4.99072 17.6 7.5C19.0127 8.09561 20 9.55741 20 11.1402C20 13.2719 18.2091 15 16 15L8.8 15Z" stroke="#000000" stroke-width="2" stroke-linecap="round" stroke-linejoin="round" fill="none"/>

		<path id="sleet" d="M6 18L4 21M9.5 20V19M9.5 19V18M9.5 19H10.5M9.5 19H8.5M14.5 18L12.5 21M18 20V19M18 19V18M18 19H19M18 19H17M8.8 15C6.14903 15 4 12.9466 4 10.4137C4 8.31435 5.6 6.375 8 6C8.75283 4.27403 10.5346 3 12.6127 3C15.2747 3 17.4504 4.99072 17.6 7.5C19.0127 8.09561 20 9.55741 20 11.1402C20 13.2719 18.2091 15 16 15L8.8 15Z" stroke="#000000" stroke-width="2" stroke-linecap="round" stroke-linejoin="round" fill="none"/>

		<path id="hurricane" d="M18 16.3741C16.1233 16.7794 14.1038 17 12 17C9.89619 17 7.87667 16.7794 6 16.3741M16 20.667C14.7104 20.8852 13.3722 21 12 21C10.6278 21 9.28964 20.8852 8 20.667M19 12.0635C16.9408 12.6591 14.55 13 12 13C9.44999 13 7.05921 12.6591 5 12.0635M21 6C21 7.65685 16.9706 9 12 9C7.02944 9 3 7.65685 3 6C3 4.34315 7.02944 3 12 3C16.9706 3 21 4.34315 21 6Z" stroke="#000000" stroke-width="2" stroke-linecap="round" fill="none"/>

		<path id="dust" d="M20.9997 21L21.0068 21.007M20.9997 16L21.0068 16.007M20.9997 11L21.0068 11.007M18.4997 13.5L18.5068 13.507M13.4997 18.5L13.5068 18.507M18.4997 18.5L18.5068 18.507M15.9997 16L16.0068 16.007M10.9997 21L11.0068 21.007M15.9997 21L16.0068 21.007M16.4491 9.5509C16.4476 9.48611 16.4524 9.42086 16.4637 9.35606C16.4906 9.20195 16.5729 9.04504 16.7374 8.73121C17.2702 7.71526 17.5366 7.20728 17.528 6.85227C17.5131 6.23804 17.0911 5.70886 16.4956 5.55764C16.1514 5.47025 15.5969 5.61692 14.4878 5.91028C14.1452 6.00089 13.9739 6.0462 13.8177 6.03811C13.5499 6.02423 13.2988 5.90333 13.1209 5.70255C13.0172 5.58546 12.9458 5.42329 12.8031 5.09895C12.341 4.04897 12.1099 3.52398 11.827 3.30937C11.3375 2.93806 10.6606 2.93806 10.1711 3.30937C9.88815 3.52398 9.65709 4.04897 9.19497 5.09895C9.05222 5.42329 8.98084 5.58546 8.87711 5.70255C8.69925 5.90333 8.44819 6.02423 8.18032 6.03811C8.0241 6.0462 7.85281 6.00089 7.51023 5.91028C6.40119 5.61692 5.84667 5.47025 5.50248 5.55764C4.90697 5.70886 4.48496 6.23804 4.47005 6.85227C4.46144 7.20728 4.72783 7.71526 5.26061 8.73121C5.42519 9.04504 5.50747 9.20195 5.53435 9.35606C5.58042 9.6203 5.51841 9.89197 5.36225 10.11C5.27118 10.2372 5.12896 10.3429 4.84451 10.5542C3.92369 11.2384 3.46327 11.5805 3.317 11.9041C3.06393 12.464 3.21454 13.1239 3.68547 13.5185C3.95766 13.7466 4.5209 13.855 5.64739 14.0719C5.99537 14.1389 6.16935 14.1724 6.30659 14.2475C6.54191 14.3762 6.71565 14.5941 6.78878 14.8521C6.83144 15.0026 6.82538 15.1797 6.81327 15.5339C6.77405 16.6804 6.75445 17.2536 6.91624 17.5697C7.09068 17.9106 7.39322 18.153 7.74217 18.2578M12.9997 11C12.9997 12.1045 12.1043 13 10.9997 13C9.89517 13 8.99974 12.1045 8.99974 11C8.99974 9.8954 9.89517 8.99997 10.9997 8.99997C12.1043 8.99997 12.9997 9.8954 12.9997 11Z" stroke="#000000" stroke-width="2" stroke-linecap="round" fill="none"/>

		<path id="haze" d="M3 11.0001L5.82341 9.79002C6.06208 9.68773 6.18142 9.63659 6.2562 9.55125C6.32206 9.47611 6.36389 9.38296 6.3763 9.28382C6.39039 9.17124 6.34934 9.04806 6.26722 8.80172L5.65307 6.95927C5.4418 6.32546 5.33617 6.00855 5.41069 5.79339C5.47559 5.60605 5.62012 5.45707 5.80542 5.38653C6.01822 5.30552 6.33818 5.40151 6.9781 5.59348L8.6504 6.09517C9.12832 6.23855 9.36728 6.31024 9.58513 6.27915C9.77707 6.25175 9.95691 6.16916 10.1028 6.0414C10.2683 5.89641 10.3696 5.66842 10.5723 5.21247L11.0204 4.20417C11.3306 3.5061 11.4858 3.15706 11.7019 3.04969C11.8897 2.95642 12.1103 2.95642 12.2981 3.04969C12.5142 3.15706 12.6694 3.5061 12.9796 4.20417L13.4277 5.21247C13.6304 5.66841 13.7317 5.89641 13.8972 6.0414C14.0431 6.16916 14.2229 6.25175 14.4149 6.27915C14.6327 6.31024 14.8717 6.23855 15.3496 6.09517L17.0219 5.59348C17.6618 5.40151 17.9818 5.30552 18.1946 5.38653C18.3799 5.45707 18.5244 5.60605 18.5893 5.79339C18.6638 6.00855 18.5582 6.32546 18.3469 6.95927L17.7328 8.80172C17.6507 9.04806 17.6096 9.17124 17.6237 9.28382C17.6361 9.38296 17.6779 9.47611 17.7438 9.55125C17.8186 9.63659 17.9379 9.68773 18.1766 9.79002L21 11.0001M10 11.0001C10 9.89548 10.8954 9.00005 12 9.00005C13.1046 9.00005 14 9.89548 14 11.0001M13 21.0001H21M17 15.0001H21M5 15.0001H13M3 18.0001H19M5 21.0001H9" stroke="#000000" stroke-width="2" stroke-linecap="round" stroke-linejoin="round" fill="none"/>
				
		<path id="sunset" d="M6 12L5 11M18 12L19 11M3 18H21M5 21H19M7 18C7 15.2386 9.23858 13 12 13C14.7614 13 17 15.2386 17 18M12 3V10M12 10L15 7M12 10L9 7" stroke="#000000" stroke-width="2" stroke-linecap="round" stroke-linejoin="round" fill="none"/>
		<path id="sunrise" d="M12 10V3M12 3L9 6M12 3L15 6M6 12L5 11M18 12L19 11M3 18H21M5 21H19M7 18C7 15.2386 9.23858 13 12 13C14.7614 13 17 15.2386 17 18" stroke="#000000" stroke-width="2" stroke-linecap="round" stroke-linejoin="round" fill="none"/>
		
		<path id="moon-0" d="M50 61.998c-6.627 0-11.999-5.372-11.999-11.998 0-6.627 5.372-11.999 11.999-11.999 6.626 0 11.998 5.372 11.998 11.999 0 6.626-5.372 11.998-11.998 11.998z"/>
		<path id="moon-100" d="M50 61.998c-6.627 0-12-5.372-12-11.999 0-6.626 5.373-11.998 12-11.998s11.998 5.372 11.998 11.998c0 6.627-5.371 11.999-11.998 11.999zm0-19.997c-4.418 0-8 3.581-8 7.998 0 4.418 3.582 7.999 8 7.999s7.998-3.581 7.998-7.999c0-4.417-3.58-7.998-7.998-7.998z"/>
		<path id="moon-waning-25" d="M50 61.998c-6.626 0-11.999-5.371-11.999-11.998S43.374 38.001 50 38.001c6.627 0 11.999 5.372 11.999 11.999S56.627 61.998 50 61.998zm2-19.734c-.641-.166-1.308-.262-2-.262-4.417 0-7.999 3.58-7.999 7.998s3.582 7.998 7.999 7.998c.692 0 1.359-.096 2-.262-3.448-.889-5.999-4.01-5.999-7.736s2.551-6.848 5.999-7.736z"/>
		<path id="moon-waning-50" d="M50 61.998c6.625 0 11.998-5.371 11.998-11.999 0-6.626-5.373-11.998-11.998-11.998-6.627 0-12 5.372-12 11.998 0 6.628 5.373 11.999 12 11.999zm0-4c-4.418 0-8-3.58-8-7.999 0-4.417 3.582-7.998 8-7.998v15.997z"/>
		<path id="moon-waning-75" d="M50 61.998c6.625 0 11.998-5.371 11.998-11.998S56.625 38.001 50 38.001c-6.627 0-12 5.372-12 11.999s5.373 11.998 12 11.998zm0-19.996c2.209 0 3.998 3.58 3.998 7.998S52.209 57.998 50 57.998c-4.418 0-8-3.58-8-7.998s3.582-7.998 8-7.998z"/>
		<path id="moon-waxing-25" d="M50 61.999c6.627 0 11.999-5.373 11.999-11.998 0-6.627-5.372-12-11.999-12-6.626 0-11.998 5.373-11.998 12 0 6.625 5.372 11.998 11.998 11.998zm-1.999-19.736c.64-.164 1.308-.262 1.999-.262 4.418 0 7.999 3.582 7.999 8 0 4.416-3.581 7.998-7.999 7.998-.691 0-1.359-.098-1.999-.262C51.449 56.849 54 53.726 54 50.001c0-3.727-2.551-6.848-5.999-7.738z"/>
		<path id="moon-waxing-50" d="M50 61.998c-6.627 0-11.998-5.372-11.998-11.998 0-6.627 5.371-11.999 11.998-11.999S61.999 43.373 61.999 50c0 6.626-5.372 11.998-11.999 11.998zm0-3.999c4.418 0 7.999-3.582 7.999-7.999 0-4.418-3.581-7.999-7.999-7.999v15.998z"/>
		<path id="moon-waxing-75" d="M50 61.998c-6.627 0-11.998-5.372-11.998-11.999 0-6.626 5.371-11.998 11.998-11.998s11.998 5.372 11.998 11.998c0 6.627-5.371 11.999-11.998 11.999zm0-19.997c-2.209 0-4 3.581-4 7.998 0 4.418 1.791 7.999 4 7.999 4.418 0 7.999-3.581 7.999-7.999 0-4.417-3.581-7.998-7.999-7.998z"/>
	</defs>


	<!-- Außen -->
	<text x="1" y="25" font-size="30">$TEXT bei</text>
	<text x="-5" y="127" font-size="120">$C_TEMP</text>
	<use transform="matrix(7.2 0 0 7.2 215 20)" xlink:href="#$C_ICON"/>
	<text x="3" y="148" font-size="16">MIN</text>
	<text x="2" y="178" font-size="35">$C_TEM_MIN</text>
	<text x="110" y="148" font-size="16">MAX</text>
	<text x="109" y="178" font-size="35">$C_TEM_MAX</text>
	
	<text x="2" y="196" font-size="10">Luftfeuchtigkeit (%)</text>
	<text x="27" y="246" font-size="60">$C_HUMI</text>
	<text x="2" y="209" font-size="9">MIN</text>
	<text x="2" y="224" font-size="16">$C_HUM_MIN</text>
	<text x="2" y="234" font-size="9">MAX</text>
	<text x="2" y="249" font-size="16">$C_HUM_MAX</text>

	<text x="235" y="196" font-size="10" text-anchor="end">Regen (mm/24h)</text>
	<text x="235" y="249" font-size="60" text-anchor="end">$C_RAIN</text>
	<!-- <text x="380" y="278" font-size="30" text-anchor="end">¤</text>-->

	<text x="394" y="196" font-size="10" text-anchor="end">Wind (Richtung + km/h)</text>
	<text x="394" y="216" font-size="16" text-anchor="end">$C_WIN_DIR</text>
	<text x="364" y="249" font-size="60" text-anchor="end">$C_WIND</text>
	<text x="394" y="234" font-size="9" text-anchor="end">MAX</text>
	<text x="393" y="249" font-size="16" text-anchor="end">$C_WIN_MAX</text>
	<!-- <text font-size="10" text-anchor="end">≈</text> -->


	<!-- Sonnenauf- und Sonnenuntergang -->
	<text x="2" y="268" font-size="10">Sonnenaufgang</text>
	<use transform="matrix(0.9 0 0 0.9 1 270)" xlink:href="#sunrise"/>
	<text x="27" y="290" font-size="22">$C_SUNRISE</text>
	<text x="235" y="268" font-size="10" text-anchor="end">Sonnenuntergang</text>
	<use transform="matrix(0.9 0 0 0.9 149 270)" xlink:href="#sunset"/>
	<text x="235" y="290" font-size="22" text-anchor="end">$C_SUNSET</text>




	<!-- Mondphase -->
	<text x="394" y="268" font-size="10" text-anchor="end">Mondphase</text>
	<use transform="translate(302 247) scale(.70)" xlink:href="#$C_MOO_ICO"/>
	<text x="377" y="290" font-size="22" text-anchor="end">$C_MOON</text>
	<text x="394" y="289" font-size="14" text-anchor="end">%</text>



	<!-- Trenner -->
	<path d="M2,296 h400" fill="black" stroke="black" stroke-width="2" />



	<!-- Wettervorschau 3 Tage --> 
	<text x="2" y="310" font-size="10">Wochentag</text>
	<text x="2" y="326" font-size="10">$DAYTXT</text>

	<text x="180" y="310" font-size="10" text-anchor="end">Höchst-</text>
	<text x="180" y="326" font-size="10" text-anchor="end">temp.</text>

	<text x="253" y="310" font-size="10" text-anchor="end">Tiefst-</text>
	<text x="253" y="326" font-size="10" text-anchor="end">temp.</text>

	<text x="321" y="310" font-size="10" text-anchor="end">Wind-</text>
	<text x="321" y="326" font-size="10" text-anchor="end">gesch.</text>

	<text x="400" y="310" font-size="10" text-anchor="end">Regen-</text>
	<text x="400" y="326" font-size="10" text-anchor="end">wahrsch.</text>

	<text x="472" y="310" font-size="10" text-anchor="end">Regen</text>
	<text x="472" y="326" font-size="10" text-anchor="end">(mm)</text>


	<use transform="matrix(1.46 0 0 1.46 74 333)" xlink:href="#$D_ICON1"/>
	<text x="-1" y="365" font-size="40">$D_DAYN1</text>
	<text x="180" y="365" font-size="40" text-anchor="end">$D_TEM_HIG1</text>
	<text x="253" y="365" font-size="40" text-anchor="end">$D_TEM_LOW1</text>
	<text x="182" y="352" font-size="25" text-anchor="start">°</text>
	<text x="255" y="352" font-size="25" text-anchor="start">°</text>
	<text x="321" y="365" font-size="35" text-anchor="end">$D_WIND1</text>
	<text x="323" y="365" font-size="10" text-anchor="start">km/h</text>
	<text x="400" y="365" font-size="35" text-anchor="end">$D_RAI_PER1</text>
	<text x="402" y="365" font-size="10" text-anchor="start">%</text>
	<text x="472" y="365" font-size="35" text-anchor="end">$D_RAI_MM1</text>

	<use transform="matrix(1.46 0 0 1.46 74 378)" xlink:href="#$D_ICON2"/>
	<text x="-1" y="412" font-size="40">$D_DAYN2</text>
	<text x="180" y="412" font-size="40" text-anchor="end">$D_TEM_HIG2</text>
	<text x="253" y="412" font-size="40" text-anchor="end">$D_TEM_LOW2</text>
	<text x="182" y="399" font-size="25" text-anchor="start">°</text>
	<text x="255" y="399" font-size="25" text-anchor="start">°</text>
	<text x="321" y="412" font-size="35" text-anchor="end">$D_WIND2</text>
	<text x="323" y="412" font-size="10" text-anchor="start">km/h</text>
	<text x="400" y="412" font-size="35" text-anchor="end">$D_RAI_PER2</text>
	<text x="402" y="412" font-size="10" text-anchor="start">%</text>
	<text x="472" y="412" font-size="35" text-anchor="end">$D_RAI_MM2</text>

	<use transform="matrix(1.46 0 0 1.46 74 426)" xlink:href="#$D_ICON3"/>
	<text x="-1" y="459" font-size="40">$D_DAYN3</text>
	<text x="180" y="459" font-size="40" text-anchor="end">$D_TEM_HIG3</text>
	<text x="253" y="459" font-size="40" text-anchor="end">$D_TEM_LOW3</text>
	<text x="182" y="446" font-size="25" text-anchor="start">°</text>
	<text x="255" y="446" font-size="25" text-anchor="start">°</text>
	<text x="321" y="459" font-size="35" text-anchor="end">$D_WIND3</text>
	<text x="323" y="459" font-size="10" text-anchor="start">km/h</text>
	<text x="400" y="459" font-size="35" text-anchor="end">$D_RAI_PER3</text>
	<text x="402" y="459" font-size="10" text-anchor="start">%</text>
	<text x="472" y="459" font-size="35" text-anchor="end">$D_RAI_MM3</text>


  	
  	<!-- Trenner -->
  	<path d="M400,2 v288" fill="black" stroke="black" stroke-width="2" />
  	<path d="M480,302 v158" fill="black" stroke="black" stroke-width="2" />



	<!-- Wettervorschau 24 Stunden -->
	<text x="427" y="13" font-size="13" text-anchor="middle">$H_TIM01 Uhr</text>
	<text x="477" y="13" font-size="13" text-anchor="middle">$H_TIM02 Uhr</text>
	<text x="527" y="13" font-size="13" text-anchor="middle">$H_TIM03 Uhr</text>
	<text x="577" y="13" font-size="13" text-anchor="middle">$H_TIM04 Uhr</text>
	<text x="627" y="13" font-size="13" text-anchor="middle">$H_TIM05 Uhr</text>
	<text x="677" y="13" font-size="13" text-anchor="middle">$H_TIM06 Uhr</text>
	<text x="727" y="13" font-size="13" text-anchor="middle">$H_TIM07 Uhr</text>
	<text x="777" y="13" font-size="13" text-anchor="middle">$H_TIM08 Uhr</text>

	<use id="notRainy01" transform="matrix(1.86 0 0 1.86 404 16)" xlink:href="#$H_ICO01"/>
	<use id="notRainy02" transform="matrix(1.86 0 0 1.86 454 16)" xlink:href="#$H_ICO02"/>
	<use id="notRainy03" transform="matrix(1.86 0 0 1.86 504 16)" xlink:href="#$H_ICO03"/>
	<use id="notRainy04" transform="matrix(1.86 0 0 1.86 554 16)" xlink:href="#$H_ICO04"/>
	<use id="notRainy05" transform="matrix(1.86 0 0 1.86 604 16)" xlink:href="#$H_ICO05"/>
	<use id="notRainy06" transform="matrix(1.86 0 0 1.86 654 16)" xlink:href="#$H_ICO06"/>
	<use id="notRainy07" transform="matrix(1.86 0 0 1.86 704 16)" xlink:href="#$H_ICO07"/>
	<use id="notRainy08" transform="matrix(1.86 0 0 1.86 754 16)" xlink:href="#$H_ICO08"/>

	<use id="rainy01" transform="matrix(1.46 0 0 1.46 408 16)" xlink:href="#$H_ICO01"/>
	<use id="rainy02" transform="matrix(1.46 0 0 1.46 458 16)" xlink:href="#$H_ICO02"/>
	<use id="rainy03" transform="matrix(1.46 0 0 1.46 508 16)" xlink:href="#$H_ICO03"/>
	<use id="rainy04" transform="matrix(1.46 0 0 1.46 558 16)" xlink:href="#$H_ICO04"/>
	<use id="rainy05" transform="matrix(1.46 0 0 1.46 608 16)" xlink:href="#$H_ICO05"/>
	<use id="rainy06" transform="matrix(1.46 0 0 1.46 658 16)" xlink:href="#$H_ICO06"/>
	<use id="rainy07" transform="matrix(1.46 0 0 1.46 708 16)" xlink:href="#$H_ICO07"/>
	<use id="rainy08" transform="matrix(1.46 0 0 1.46 758 16)" xlink:href="#$H_ICO08"/>
	
	<text id="rainy01" x="427" y="58" font-size="8" font-weight="bold" text-anchor="middle">$H_RAI01</text>
	<text id="rainy02" x="477" y="58" font-size="8" font-weight="bold" text-anchor="middle">$H_RAI02</text>
	<text id="rainy03" x="527" y="58" font-size="8" font-weight="bold" text-anchor="middle">$H_RAI03</text>
	<text id="rainy04" x="577" y="58" font-size="8" font-weight="bold" text-anchor="middle">$H_RAI04</text>
	<text id="rainy05" x="627" y="58" font-size="8" font-weight="bold" text-anchor="middle">$H_RAI05</text>
	<text id="rainy06" x="677" y="58" font-size="8" font-weight="bold" text-anchor="middle">$H_RAI06</text>
	<text id="rainy07" x="727" y="58" font-size="8" font-weight="bold" text-anchor="middle">$H_RAI07</text>
	<text id="rainy08" x="777" y="58" font-size="8" font-weight="bold" text-anchor="middle">$H_RAI08</text>

	<text x="427" y="76" font-size="16" font-weight="bold" text-anchor="middle">$H_TMP01</text>	
	<text x="477" y="76" font-size="16" font-weight="bold" text-anchor="middle">$H_TMP02</text>
	<text x="527" y="76" font-size="16" font-weight="bold" text-anchor="middle">$H_TMP03</text>
	<text x="577" y="76" font-size="16" font-weight="bold" text-anchor="middle">$H_TMP04</text>
	<text x="627" y="76" font-size="16" font-weight="bold" text-anchor="middle">$H_TMP05</text>
	<text x="677" y="76" font-size="16" font-weight="bold" text-anchor="middle">$H_TMP06</text>
	<text x="727" y="76" font-size="16" font-weight="bold" text-anchor="middle">$H_TMP07</text>
	<text x="777" y="76" font-size="16" font-weight="bold" text-anchor="middle">$H_TMP08</text>

	<text x="427" y="88" font-size="8" font-weight="bold" text-anchor="middle">$H_WSP01</text>
	<text x="477" y="88" font-size="8" font-weight="bold" text-anchor="middle">$H_WSP02</text>
	<text x="527" y="88" font-size="8" font-weight="bold" text-anchor="middle">$H_WSP03</text>
	<text x="577" y="88" font-size="8" font-weight="bold" text-anchor="middle">$H_WSP04</text>
	<text x="627" y="88" font-size="8" font-weight="bold" text-anchor="middle">$H_WSP05</text>
	<text x="677" y="88" font-size="8" font-weight="bold" text-anchor="middle">$H_WSP06</text>
	<text x="727" y="88" font-size="8" font-weight="bold" text-anchor="middle">$H_WSP07</text>
	<text x="777" y="88" font-size="8" font-weight="bold" text-anchor="middle">$H_WSP08</text>


	<text x="427" y="114" font-size="13" text-anchor="middle">$H_TIM09 Uhr</text>
	<text x="477" y="114" font-size="13" text-anchor="middle">$H_TIM10 Uhr</text>
	<text x="527" y="114" font-size="13" text-anchor="middle">$H_TIM11 Uhr</text>
	<text x="577" y="114" font-size="13" text-anchor="middle">$H_TIM12 Uhr</text>
	<text x="627" y="114" font-size="13" text-anchor="middle">$H_TIM13 Uhr</text>
	<text x="677" y="114" font-size="13" text-anchor="middle">$H_TIM14 Uhr</text>
	<text x="727" y="114" font-size="13" text-anchor="middle">$H_TIM15 Uhr</text>
	<text x="777" y="114" font-size="13" text-anchor="middle">$H_TIM16 Uhr</text>

	<use id="notRainy09" transform="matrix(1.86 0 0 1.86 404 117)" xlink:href="#$H_ICO09"/>
	<use id="notRainy10" transform="matrix(1.86 0 0 1.86 454 117)" xlink:href="#$H_ICO10"/>
	<use id="notRainy11" transform="matrix(1.86 0 0 1.86 504 117)" xlink:href="#$H_ICO11"/>
	<use id="notRainy12" transform="matrix(1.86 0 0 1.86 554 117)" xlink:href="#$H_ICO12"/>
	<use id="notRainy13" transform="matrix(1.86 0 0 1.86 604 117)" xlink:href="#$H_ICO13"/>
	<use id="notRainy14" transform="matrix(1.86 0 0 1.86 654 117)" xlink:href="#$H_ICO14"/>
	<use id="notRainy15" transform="matrix(1.86 0 0 1.86 704 117)" xlink:href="#$H_ICO15"/>
	<use id="notRainy16" transform="matrix(1.86 0 0 1.86 754 117)" xlink:href="#$H_ICO16"/>

	<use id="rainy09" transform="matrix(1.46 0 0 1.46 408 117)" xlink:href="#$H_ICO09"/>
	<use id="rainy10" transform="matrix(1.46 0 0 1.46 458 117)" xlink:href="#$H_ICO10"/>
	<use id="rainy11" transform="matrix(1.46 0 0 1.46 508 117)" xlink:href="#$H_ICO11"/>
	<use id="rainy12" transform="matrix(1.46 0 0 1.46 558 117)" xlink:href="#$H_ICO12"/>
	<use id="rainy13" transform="matrix(1.46 0 0 1.46 608 117)" xlink:href="#$H_ICO13"/>
	<use id="rainy14" transform="matrix(1.46 0 0 1.46 658 117)" xlink:href="#$H_ICO14"/>
	<use id="rainy15" transform="matrix(1.46 0 0 1.46 708 117)" xlink:href="#$H_ICO15"/>
	<use id="rainy16" transform="matrix(1.46 0 0 1.46 758 117)" xlink:href="#$H_ICO16"/>
	
	<text id="rainy09" x="427" y="159" font-size="8" font-weight="bold" text-anchor="middle">$H_RAI09</text>
	<text id="rainy10" x="477" y="159" font-size="8" font-weight="bold" text-anchor="middle">$H_RAI10</text>
	<text id="rainy11" x="527" y="159" font-size="8" font-weight="bold" text-anchor="middle">$H_RAI11</text>
	<text id="rainy12" x="577" y="159" font-size="8" font-weight="bold" text-anchor="middle">$H_RAI12</text>
	<text id="rainy13" x="627" y="159" font-size="8" font-weight="bold" text-anchor="middle">$H_RAI13</text>
	<text id="rainy14" x="677" y="159" font-size="8" font-weight="bold" text-anchor="middle">$H_RAI14</text>
	<text id="rainy15" x="727" y="159" font-size="8" font-weight="bold" text-anchor="middle">$H_RAI15</text>
	<text id="rainy16" x="777" y="159" font-size="8" font-weight="bold" text-anchor="middle">$H_RAI16</text>

	<text x="427" y="177" font-size="16" font-weight="bold" text-anchor="middle">$H_TMP09</text>
	<text x="477" y="177" font-size="16" font-weight="bold" text-anchor="middle">$H_TMP10</text>
	<text x="527" y="177" font-size="16" font-weight="bold" text-anchor="middle">$H_TMP11</text>
	<text x="577" y="177" font-size="16" font-weight="bold" text-anchor="middle">$H_TMP12</text>
	<text x="627" y="177" font-size="16" font-weight="bold" text-anchor="middle">$H_TMP13</text>
	<text x="677" y="177" font-size="16" font-weight="bold" text-anchor="middle">$H_TMP14</text>
	<text x="727" y="177" font-size="16" font-weight="bold" text-anchor="middle">$H_TMP15</text>
	<text x="777" y="177" font-size="16" font-weight="bold" text-anchor="middle">$H_TMP16</text>

	<text x="427" y="189" font-size="8" font-weight="bold" text-anchor="middle">$H_WSP09</text>
	<text x="477" y="189" font-size="8" font-weight="bold" text-anchor="middle">$H_WSP10</text>
	<text x="527" y="189" font-size="8" font-weight="bold" text-anchor="middle">$H_WSP11</text>
	<text x="577" y="189" font-size="8" font-weight="bold" text-anchor="middle">$H_WSP12</text>
	<text x="627" y="189" font-size="8" font-weight="bold" text-anchor="middle">$H_WSP13</text>
	<text x="677" y="189" font-size="8" font-weight="bold" text-anchor="middle">$H_WSP14</text>
	<text x="727" y="189" font-size="8" font-weight="bold" text-anchor="middle">$H_WSP15</text>
	<text x="777" y="189" font-size="8" font-weight="bold" text-anchor="middle">$H_WSP16</text>


	<text x="427" y="214" font-size="13" text-anchor="middle">$H_TIM17 Uhr</text>
	<text x="477" y="214" font-size="13" text-anchor="middle">$H_TIM18 Uhr</text>
	<text x="527" y="214" font-size="13" text-anchor="middle">$H_TIM19 Uhr</text>
	<text x="577" y="214" font-size="13" text-anchor="middle">$H_TIM20 Uhr</text>
	<text x="627" y="214" font-size="13" text-anchor="middle">$H_TIM21 Uhr</text>
	<text x="677" y="214" font-size="13" text-anchor="middle">$H_TIM22 Uhr</text>
	<text x="727" y="214" font-size="13" text-anchor="middle">$H_TIM23 Uhr</text>
	<text x="777" y="214" font-size="13" text-anchor="middle">$H_TIM24 Uhr</text>

	<use id="notRainy17" transform="matrix(1.86 0 0 1.86 404 217)" xlink:href="#$H_ICO17"/>
	<use id="notRainy18" transform="matrix(1.86 0 0 1.86 454 217)" xlink:href="#$H_ICO18"/>
	<use id="notRainy19" transform="matrix(1.86 0 0 1.86 504 217)" xlink:href="#$H_ICO19"/>
	<use id="notRainy20" transform="matrix(1.86 0 0 1.86 554 217)" xlink:href="#$H_ICO20"/>
	<use id="notRainy21" transform="matrix(1.86 0 0 1.86 604 217)" xlink:href="#$H_ICO21"/>
	<use id="notRainy22" transform="matrix(1.86 0 0 1.86 654 217)" xlink:href="#$H_ICO22"/>
	<use id="notRainy23" transform="matrix(1.86 0 0 1.86 704 217)" xlink:href="#$H_ICO23"/>
	<use id="notRainy24" transform="matrix(1.86 0 0 1.86 754 217)" xlink:href="#$H_ICO24"/>

	<use id="rainy17" transform="matrix(1.46 0 0 1.46 408 217)" xlink:href="#$H_ICO17"/>
	<use id="rainy18" transform="matrix(1.46 0 0 1.46 458 217)" xlink:href="#$H_ICO18"/>
	<use id="rainy19" transform="matrix(1.46 0 0 1.46 508 217)" xlink:href="#$H_ICO19"/>
	<use id="rainy20" transform="matrix(1.46 0 0 1.46 558 217)" xlink:href="#$H_ICO20"/>
	<use id="rainy21" transform="matrix(1.46 0 0 1.46 608 217)" xlink:href="#$H_ICO21"/>
	<use id="rainy22" transform="matrix(1.46 0 0 1.46 658 217)" xlink:href="#$H_ICO22"/>
	<use id="rainy23" transform="matrix(1.46 0 0 1.46 708 217)" xlink:href="#$H_ICO23"/>
	<use id="rainy24" transform="matrix(1.46 0 0 1.46 758 217)" xlink:href="#$H_ICO24"/>

	<text id="rainy17" x="427" y="259" font-size="8" font-weight="bold" text-anchor="middle">$H_RAI17</text>
	<text id="rainy18" x="477" y="259" font-size="8" font-weight="bold" text-anchor="middle">$H_RAI18</text>
	<text id="rainy19" x="527" y="259" font-size="8" font-weight="bold" text-anchor="middle">$H_RAI19</text>
	<text id="rainy20" x="577" y="259" font-size="8" font-weight="bold" text-anchor="middle">$H_RAI20</text>
	<text id="rainy21" x="627" y="259" font-size="8" font-weight="bold" text-anchor="middle">$H_RAI21</text>
	<text id="rainy22" x="677" y="259" font-size="8" font-weight="bold" text-anchor="middle">$H_RAI22</text>
	<text id="rainy23" x="727" y="259" font-size="8" font-weight="bold" text-anchor="middle">$H_RAI23</text>
	<text id="rainy24" x="777" y="259" font-size="8" font-weight="bold" text-anchor="middle">$H_RAI24</text>

	<text x="427" y="277" font-size="16" font-weight="bold" text-anchor="middle">$H_TMP17</text>
	<text x="477" y="277" font-size="16" font-weight="bold" text-anchor="middle">$H_TMP18</text>
	<text x="527" y="277" font-size="16" font-weight="bold" text-anchor="middle">$H_TMP19</text>
	<text x="577" y="277" font-size="16" font-weight="bold" text-anchor="middle">$H_TMP20</text>
	<text x="627" y="277" font-size="16" font-weight="bold" text-anchor="middle">$H_TMP21</text>
	<text x="677" y="277" font-size="16" font-weight="bold" text-anchor="middle">$H_TMP22</text>
	<text x="727" y="277" font-size="16" font-weight="bold" text-anchor="middle">$H_TMP23</text>
	<text x="777" y="277" font-size="16" font-weight="bold" text-anchor="middle">$H_TMP24</text>

	<text x="427" y="289" font-size="8" font-weight="bold" text-anchor="middle">$H_WSP17</text>
	<text x="477" y="289" font-size="8" font-weight="bold" text-anchor="middle">$H_WSP18</text>
	<text x="527" y="289" font-size="8" font-weight="bold" text-anchor="middle">$H_WSP19</text>
	<text x="577" y="289" font-size="8" font-weight="bold" text-anchor="middle">$H_WSP20</text>
	<text x="627" y="289" font-size="8" font-weight="bold" text-anchor="middle">$H_WSP21</text>
	<text x="677" y="289" font-size="8" font-weight="bold" text-anchor="middle">$H_WSP22</text>
	<text x="727" y="289" font-size="8" font-weight="bold" text-anchor="middle">$H_WSP23</text>
	<text x="777" y="289" font-size="8" font-weight="bold" text-anchor="middle">$H_WSP24</text>

	

	<!-- Trenner -->
	<path d="M399,296 h399" fill="black" stroke="black" stroke-width="2" />



	<!-- Innen -->
	<text x="485" y="317" font-size="20">$ROOM1</text>

	<text x="486" y="332" font-size="10">Temperatur (°C)</text>
	<text x="525" y="385" font-size="60">$I_TEMP</text>
	<text x="486" y="345" font-size="9">MIN</text>
	<text x="486" y="360" font-size="16">$I_TEM_MIN</text>
	<text x="486" y="370" font-size="9">MAX</text>
	<text x="486" y="385" font-size="16">$I_TEM_MAX</text>

	<text x="798" y="332" font-size="10" text-anchor="end">Luftfeuchtigkeit (%)</text>	
	<text x="768" y="385" font-size="60" text-anchor="end">$I_HUMI</text>
	<text x="798" y="345" font-size="9" text-anchor="end">MIN</text>
	<text x="798" y="360" font-size="16" text-anchor="end">$I_HUM_MIN</text>
	<text x="798" y="370" font-size="9" text-anchor="end">MAX</text>
	<text x="798" y="385" font-size="16" text-anchor="end">$I_HUM_MAX</text>


	<text x="704" y="681" font-size="20" text-anchor="end">$ROOM2</text>

	<text x="486" y="405" font-size="10">Luftqualität (ppm)</text>
	<text x="525" y="458" font-size="60">$I_AIRQ</text>
	<text x="486" y="418" font-size="9">MIN</text>
	<text x="486" y="432" font-size="16">$I_AIR_MIN</text>
	<text x="486" y="442" font-size="9">MAX</text>
	<text x="486" y="457" font-size="16">$I_AIR_MAX</text>

	<text x="798" y="405" font-size="10" text-anchor="end">Lautstärke (dB)</text>
	<text x="768" y="458" font-size="60" text-anchor="end">$I_NOIS</text>
	<text x="798" y="418" font-size="9" text-anchor="end">MIN</text>
	<text x="798" y="432" font-size="16" text-anchor="end">$I_NOI_MIN</text>
	<text x="798" y="442" font-size="9" text-anchor="end">MAX</text>
	<text x="798" y="457" font-size="16" text-anchor="end">$I_NOI_MAX</text>
	


	<!-- Trenner -->
  	<path d="M2,466 h796" fill="black" stroke="black" stroke-width="2" />



	<!-- Infos -->
	<text x="2" y="478" font-size="11.3">$TIME für $LOC</text>
	<!-- <text x="2" y="478" font-size="12">$TIME</text> -->
	<!-- <text x="343" y="478" font-size="12">$LOC</text> -->
	<!-- <text x="790" y="475" font-size="12" text-anchor="end">Weather Underground + Netatmo Wetterstation</text> -->
</svg>